<?xml version="1.0" encoding="UTF-8" standalone="no"?>
<!-- Created with Inkscape (http://www.inkscape.org/) -->

<svg
   version="1.1"
   id="svg2"
   width="1215.9733"
   height="254.93333"
   viewBox="0 0 1215.9733 254.93333"
   sodipodi:docname="mindbody-wordmark-charcoal.eps"
   xmlns:inkscape="http://www.inkscape.org/namespaces/inkscape"
   xmlns:sodipodi="http://sodipodi.sourceforge.net/DTD/sodipodi-0.dtd"
   xmlns="http://www.w3.org/2000/svg"
   xmlns:svg="http://www.w3.org/2000/svg">
  <defs
     id="defs6" />
  <sodipodi:namedview
     id="namedview4"
     pagecolor="#ffffff"
     bordercolor="#000000"
     borderopacity="0.25"
     inkscape:showpageshadow="2"
     inkscape:pageopacity="0.0"
     inkscape:pagecheckerboard="0"
     inkscape:deskcolor="#d1d1d1" />
  <g
     id="g8"
     inkscape:groupmode="layer"
     inkscape:label="ink_ext_XXXXXX"
     transform="matrix(1.3333333,0,0,-1.3333333,0,254.93333)">
    <g
       id="g10"
       transform="scale(0.1)">
      <path
         d="M 8882.89,1444.59 V 951.773 c 0,-194.582 -80.37,-302.453 -249.58,-302.453 -154.4,0 -228.43,76.149 -228.43,283.422 V 1444.59 H 8168 V 839.68 c 0,-255.918 129.01,-412.442 372.25,-412.442 133.24,0 262.27,54.992 338.4,162.864 h 4.24 V 505.5 c 0,-181.891 -103.64,-291.879 -306.7,-291.879 -148.04,0 -238.99,42.301 -351.08,101.52 L 8168,107.859 C 8284.32,38.0703 8434.49,0 8588.89,0 c 384.95,0 530.88,234.77 530.88,558.379 V 1444.59 Z M 7774.12,928.512 c 0,200.928 -112.1,317.258 -300.33,317.258 -164.98,0 -298.23,-122.67 -298.23,-317.258 0,-186.133 122.68,-317.262 296.11,-317.262 179.78,0 302.45,105.762 302.45,317.262 z m -8.46,962.358 h 234.78 V 412.441 h -226.32 v 148.047 h -4.22 C 7695.87,450.512 7583.78,395.52 7435.72,395.52 c -285.54,0 -501.28,209.39 -501.28,528.773 0,310.907 215.74,535.097 499.16,535.097 135.36,0 251.69,-44.42 327.84,-141.71 h 4.22 z M 6600.83,926.402 c 0,196.698 -131.13,329.948 -300.35,329.948 -179.79,0 -300.33,-143.83 -300.33,-329.948 0,-181.902 122.67,-325.722 300.33,-325.722 167.09,0 300.35,133.242 300.35,325.722 z m 241.1,-0.425 C 6841.73,613.172 6617.6,395.52 6300.48,395.52 c -325.72,0 -541.46,228.429 -541.46,530.882 0,303.528 214.26,531.418 538.11,532.978 299.37,1.45 545,-234.03 544.8,-533.403 z m -1416.43,2.535 c 0,194.588 -133.25,317.258 -298.22,317.258 -188.24,0 -300.35,-116.33 -300.35,-317.258 0,-211.5 122.68,-317.262 302.46,-317.262 173.43,0 296.11,131.129 296.11,317.262 z m 241.11,-4.219 c 0,-319.383 -215.73,-528.773 -501.27,-528.773 -148.05,0 -260.15,54.992 -334.18,164.968 h -4.23 V 412.441 H 4600.62 V 1890.87 h 234.78 v -573.19 h 4.22 c 76.14,97.29 192.48,141.71 327.84,141.71 283.42,0 499.15,-224.19 499.15,-535.097 z m -1488.9,4.219 c 0,200.928 -112.09,317.258 -300.34,317.258 -164.97,0 -298.21,-122.67 -298.21,-317.258 0,-186.133 122.67,-317.262 296.1,-317.262 179.78,0 302.45,105.762 302.45,317.262 z m -8.46,962.358 h 234.78 V 412.441 h -226.32 v 148.047 h -4.22 C 4099.46,450.512 3987.36,395.52 3839.31,395.52 c -285.54,0 -501.27,209.39 -501.27,528.773 0,310.907 215.73,535.097 499.15,535.097 135.36,0 251.69,-44.42 327.84,-141.71 h 4.22 z M 2840.33,1459.39 c -135.36,0 -258.04,-50.76 -344.75,-167.09 h -4.23 v 152.29 H 2254.46 V 412.441 h 236.89 V 939.09 c 0,194.58 82.48,302.45 255.92,302.45 158.63,0 234.77,-76.14 234.77,-283.411 V 412.441 h 236.89 v 634.519 c 0,255.92 -131.14,412.43 -378.6,412.43 z m -914.09,452.63 c -88.83,0 -158.63,-71.91 -158.63,-156.52 0,-86.71 69.8,-158.63 158.63,-158.63 88.84,0 160.75,71.92 160.75,158.63 0,84.61 -71.91,156.52 -160.75,156.52 z M 1807.8,412.441 h 236.88 V 1444.59 H 1807.8 Z M 1615.91,1046.96 V 412.441 h -236.89 v 545.688 c 0,207.271 -71.91,283.411 -219.96,283.411 -152.29,0 -232.662,-107.87 -232.662,-302.45 V 412.441 H 689.512 v 545.688 c 0,207.271 -69.801,283.411 -215.742,283.411 -160.739,0 -236.879,-107.87 -236.879,-302.45 V 412.441 H 0 V 1444.59 H 236.891 V 1292.3 h 4.23 c 84.598,114.22 198.82,167.09 325.719,167.09 156.512,0 264.379,-69.8 319.371,-194.58 101.519,129.02 226.309,194.58 365.909,194.58 236.88,0 363.79,-156.51 363.79,-412.43"
         style="fill:#292827;fill-opacity:1;fill-rule:nonzero;stroke:none"
         id="path12" />
    </g>
  </g>
</svg>
